<svg width="38" height="16" viewBox="0 0 38 16" fill="none" xmlns="http://www.w3.org/2000/svg">
<path fill-rule="evenodd" clip-rule="evenodd" d="M36.8064 7.19142C36.9128 7.29757 36.9972 7.42367 37.0548 7.5625C37.1124 7.70133 37.1421 7.85016 37.1421 8.00047C37.1421 8.15077 37.1124 8.2996 37.0548 8.43843C36.9972 8.57726 36.9128 8.70336 36.8064 8.80951L29.9501 15.6658C29.7355 15.8804 29.4445 16.0009 29.141 16.0009C28.8376 16.0009 28.5466 15.8804 28.332 15.6658C28.1174 15.4512 27.9969 15.1602 27.9969 14.8568C27.9969 14.5533 28.1174 14.2623 28.332 14.0477L34.3815 8.00047L28.332 1.95321C28.1174 1.73863 27.9969 1.44761 27.9969 1.14416C27.9969 0.840711 28.1174 0.549689 28.332 0.335117C28.5466 0.120545 28.8376 -3.63002e-07 29.141 -3.49738e-07C29.4445 -3.36473e-07 29.7355 0.120545 29.9501 0.335117L36.8064 7.19142Z" fill="white"/>
<rect y="7" width="35" height="2" rx="1" fill="white"/>
</svg>
