<svg width="446" height="351" viewBox="0 0 446 351" fill="none" xmlns="http://www.w3.org/2000/svg">
<path d="M365.279 69.8417C357.414 62.2405 351.277 52.2691 339.84 52.2691C331.36 52.2691 328.922 61.426 321.746 63.8693C314.22 66.4378 308.496 59.7972 301.606 58.3981C290.063 56.0384 290.413 64.0155 285.389 70.8336C280.629 77.2967 270.157 68.2128 264.984 75.8558C260.49 82.4964 253.685 86.8608 249.975 86.1508C246.265 85.4408 238.04 81.0242 230.556 85.4408C223.073 89.8574 220.084 93.5536 212.59 93.5536C205.096 93.5536 195.386 95.7672 195.386 95.7672H397.418C397.418 95.7672 390.687 79.552 380.214 78.0693C374.056 77.2027 369.424 73.8511 365.279 69.8417Z" fill="#D0CBFF"/>
<path d="M132.837 99.5364C128.831 95.6732 125.714 90.5988 119.874 90.5988C115.56 90.5988 114.32 95.2555 110.673 96.498C106.847 97.8032 103.942 94.4098 100.444 93.7207C94.5828 92.5199 94.7524 96.5711 92.1979 100.038C89.7811 103.327 84.46 98.7116 81.8207 102.596C79.5417 105.968 76.0756 108.192 74.1995 107.816C72.3233 107.44 68.1258 105.206 64.3205 107.461C60.5152 109.717 59.0206 111.586 55.1835 111.586C52.2398 111.691 49.3123 112.065 46.4387 112.703H148.96C148.96 112.703 145.78 104.465 140.48 103.713C137.535 103.186 134.849 101.718 132.837 99.5364Z" fill="#D0CBFF"/>
<path d="M236.8 16.7899C234.542 14.5972 232.772 11.7259 229.465 11.7259C227.016 11.7259 226.285 14.3571 224.25 15.0671C222.214 15.7771 220.434 13.8977 218.452 13.4905C215.123 12.8118 215.272 15.1088 213.777 17.0718C212.283 19.0347 209.389 16.32 207.905 18.5231C206.601 20.4339 204.64 21.6555 203.58 21.4884C202.52 21.3214 200.135 20.0058 197.983 21.2796C195.832 22.5534 194.963 23.6184 192.8 23.6184C191.134 23.6786 189.476 23.8918 187.85 24.2553H242.831C242.831 24.2553 244.124 19.5881 241.103 19.16C239.445 18.8533 237.934 18.021 236.8 16.7899Z" fill="#D0CBFF"/>
<path opacity="0.5" d="M365.279 69.8417C357.414 62.2405 351.277 52.2691 339.84 52.2691C331.36 52.2691 328.922 61.426 321.746 63.8693C314.22 66.4378 308.496 59.7972 301.606 58.3981C290.063 56.0384 290.413 64.0155 285.389 70.8336C280.629 77.2967 270.157 68.2128 264.984 75.8558C260.49 82.4964 253.685 86.8608 249.975 86.1508C246.265 85.4408 238.04 81.0242 230.556 85.4408C223.073 89.8574 220.084 93.5536 212.59 93.5536C205.096 93.5536 195.386 95.7672 195.386 95.7672H397.418C397.418 95.7672 390.687 79.552 380.214 78.0693C374.056 77.2027 369.424 73.8511 365.279 69.8417Z" fill="white"/>
<path opacity="0.5" d="M132.837 99.5364C128.831 95.6732 125.714 90.5988 119.874 90.5988C115.56 90.5988 114.32 95.2555 110.673 96.498C106.847 97.8032 103.942 94.4098 100.444 93.7207C94.5828 92.5199 94.7524 96.5711 92.1979 100.038C89.7811 103.327 84.46 98.7116 81.8207 102.596C79.5417 105.968 76.0756 108.192 74.1995 107.816C72.3233 107.44 68.1258 105.206 64.3205 107.461C60.5152 109.717 59.0206 111.586 55.1835 111.586C52.2398 111.691 49.3123 112.065 46.4387 112.703H148.96C148.96 112.703 145.78 104.465 140.48 103.713C137.535 103.186 134.849 101.718 132.837 99.5364Z" fill="white"/>
<path opacity="0.5" d="M236.8 16.7899C234.542 14.5972 232.772 11.7259 229.465 11.7259C227.016 11.7259 226.285 14.3571 224.25 15.0671C222.214 15.7771 220.434 13.8977 218.452 13.4905C215.123 12.8118 215.272 15.1088 213.777 17.0718C212.283 19.0347 209.389 16.32 207.905 18.5231C206.601 20.4339 204.64 21.6555 203.58 21.4884C202.52 21.3214 200.135 20.0058 197.983 21.2796C195.832 22.5534 194.963 23.6184 192.8 23.6184C191.134 23.6786 189.476 23.8918 187.85 24.2553H242.831C242.831 24.2553 244.124 19.5881 241.103 19.16C239.445 18.8533 237.934 18.021 236.8 16.7899Z" fill="white"/>
<mask id="mask0_31_1027" style="mask-type:luminance" maskUnits="userSpaceOnUse" x="0" y="0" width="428" height="343">
<path d="M322.128 18.805C322.128 18.805 258.148 -16.7786 184.861 9.95089C111.574 36.6804 65.0836 106.636 25.8645 162.392C-13.3546 218.148 -7.1855 282.581 39.0294 319.428C85.2444 356.275 126.944 320.723 198.81 330.913C270.676 341.104 288.198 354.521 354.34 324.649C420.483 294.776 447.237 202.121 412.279 124.178C377.321 46.2341 322.128 18.805 322.128 18.805Z" fill="white"/>
</mask>
<g mask="url(#mask0_31_1027)">
<path d="M49.5867 361.235H342.681L450.893 252.469L452.589 248.668L334.826 102.596L311.273 124.084L217.063 28.7033L126.35 152.442L85.3503 123.228L-14.7644 265.395L49.5867 361.235Z" fill="#D0CBFF"/>
<path opacity="0.55" d="M49.5867 361.235H342.681L450.893 252.469L452.589 248.668L334.826 102.596L311.273 124.084L217.063 28.7033L126.35 152.442L85.3503 123.228L-14.7644 265.395L49.5867 361.235Z" fill="white"/>
<path d="M352.273 136.112L343.55 130.954L347.037 150.719L311.273 124.084L334.826 102.596L355.103 127.748L352.273 136.112ZM203.114 77.6411L210.088 87.9466L222.299 74.2059L250.219 116.305L258.942 85.3676L271.153 93.9607L271.991 84.2712L217.073 28.7449L178.257 81.6818L178.692 94.9108L203.114 77.6411ZM118.496 164.481L120.743 148.453L85.3503 123.227L57.3669 162.967L75.7575 146.428L84.4811 161.045L98.4304 150.74L118.496 164.481Z" fill="white"/>
<path opacity="0.1" d="M89.8444 176.854L77.8667 167.269L71.1252 191.597L100.317 232.881L83.8556 235.825L93.5861 294.797L131.745 181.281L122.025 180.539L126.35 152.442L85.3501 123.228L98.4302 150.719L89.8444 176.854Z" fill="#141414"/>
<path opacity="0.1" d="M252.837 149.863L263.299 262.419L244.124 291.936L337.784 361.235H342.681L450.894 252.469L452.589 248.668L334.826 102.596L354.022 143.849L334.826 134.389L326.982 136.968L311.274 124.084L217.063 28.7033L280.746 170.484L252.837 149.863Z" fill="#141414"/>
</g>
<path d="M66.4087 99.5573C66.4087 99.5573 73.6695 96.6964 86.7496 99.5573C99.8297 102.418 112.189 111.732 131.799 114.593C151.408 117.454 163.767 111.011 165.951 100.278C168.135 89.5442 157.959 88.1033 151.419 93.115C144.879 98.1268 151.419 106.689 151.419 106.689" stroke="#263238" stroke-width="0.982119" stroke-linecap="round" stroke-linejoin="round" stroke-dasharray="2.62 2.62"/>
<path d="M128.163 121.745C128.163 121.745 137.618 125.326 153.602 121.745C169.587 118.164 171.039 100.278 183.388 90.9747C195.737 81.6715 205.912 91.6846 205.912 100.278C205.912 108.871 199.372 110.291 192.832 110.291" stroke="#263238" stroke-width="0.982119" stroke-linecap="round" stroke-linejoin="round" stroke-dasharray="2.62 2.62"/>
<path d="M307.68 209.66C307.68 209.66 317.125 205.368 329.474 216.812C341.822 228.256 356.354 241.15 375.975 239.72C395.595 238.29 403.587 221.114 420.292 217.532C436.997 213.951 445 223.975 445 230.417C445 236.859 434.104 245.442 428.295 239" stroke="#263238" stroke-width="0.982119" stroke-linecap="round" stroke-linejoin="round" stroke-dasharray="2.62 2.62"/>
<path d="M284.424 223.996C284.424 223.996 308.401 216.833 320.76 226.856C333.12 236.88 344.006 251.915 362.174 251.915" stroke="#263238" stroke-width="0.982119" stroke-linecap="round" stroke-linejoin="round" stroke-dasharray="2.62 2.62"/>
<path d="M237.859 165.525C237.859 165.525 260.871 165.775 264.359 169.701C267.846 173.627 264.613 187.692 264.613 187.692C268.421 194.463 271.128 201.781 272.637 209.378C274.884 221.448 269.627 233.528 269.627 233.528C269.627 233.528 267.38 244.606 265.133 249.535C262.885 254.463 246.625 254.223 236.863 252.49C227.101 250.756 231.118 234.019 231.871 221.698C232.623 209.378 229.613 175.632 229.613 172.426C229.613 169.221 231.871 168.01 237.859 165.525Z" fill="white"/>
<mask id="mask1_31_1027" style="mask-type:luminance" maskUnits="userSpaceOnUse" x="229" y="165" width="45" height="89">
<path d="M237.859 165.525C237.859 165.525 260.871 165.775 264.359 169.701C267.846 173.627 264.613 187.692 264.613 187.692C268.421 194.463 271.128 201.781 272.637 209.378C274.884 221.448 269.627 233.528 269.627 233.528C269.627 233.528 267.38 244.606 265.133 249.535C262.885 254.463 246.625 254.223 236.863 252.49C227.101 250.756 231.118 234.019 231.871 221.698C232.623 209.378 229.613 175.632 229.613 172.426C229.613 169.221 231.871 168.01 237.859 165.525Z" fill="white"/>
</mask>
<g mask="url(#mask1_31_1027)">
<path opacity="0.1" d="M237.859 165.525C237.859 165.525 260.871 165.775 264.359 169.701C267.846 173.627 264.613 187.692 264.613 187.692C268.421 194.463 271.128 201.781 272.637 209.378C274.884 221.448 269.627 233.528 269.627 233.528C269.627 233.528 267.38 244.606 265.133 249.535C262.885 254.463 246.625 254.223 236.863 252.49C227.101 250.756 231.118 234.019 231.871 221.698C232.623 209.378 229.613 175.632 229.613 172.426C229.613 169.221 231.871 168.01 237.859 165.525Z" fill="#141414"/>
</g>
<path d="M237.859 165.525C237.859 165.525 260.871 165.775 264.359 169.701C267.846 173.627 264.613 187.692 264.613 187.692C268.421 194.463 271.128 201.781 272.637 209.378C274.884 221.448 269.627 233.528 269.627 233.528C269.627 233.528 267.38 244.606 265.133 249.535C262.885 254.463 246.625 254.223 236.863 252.49C227.101 250.756 231.118 234.019 231.871 221.698C232.623 209.378 229.613 175.632 229.613 172.426C229.613 169.221 231.871 168.01 237.859 165.525Z" stroke="#263238" stroke-width="1.30949" stroke-linecap="round" stroke-linejoin="round"/>
<path d="M264.635 187.723C264.635 187.723 251.374 191.899 241.623 193.142L241.368 188.704C241.368 188.704 261.624 186.982 265.133 184.027L264.635 187.723Z" fill="#263238" stroke="#263238" stroke-width="1.30949" stroke-linecap="round" stroke-linejoin="round"/>
<path d="M269.659 233.549C269.659 233.549 254.162 236.995 248.65 236.504L248.152 240.681C248.152 240.681 263.415 240.43 268.917 237.966L269.659 233.549Z" fill="#263238" stroke="#263238" stroke-width="1.30949" stroke-linecap="round" stroke-linejoin="round"/>
<path d="M206.06 248.574C206.06 248.574 171.548 245.619 163.29 248.574C155.033 251.529 153.751 261.636 153.751 268.527C153.751 275.418 148.451 306.22 147.995 307.452C147.539 308.684 141.995 319.522 143.755 321.986C145.515 324.45 161.266 321.986 164.011 319.282C166.756 316.578 173.763 286.267 176.264 278.384C177.663 273.864 179.505 269.489 181.766 265.322C181.766 265.322 214.53 278.634 231.797 273.946C249.063 269.258 242.799 257.24 233.291 252.27C223.783 247.3 206.06 248.574 206.06 248.574Z" fill="#263238" stroke="#263238" stroke-width="1.30949" stroke-linecap="round" stroke-linejoin="round"/>
<path d="M145.832 305.489C145.832 305.489 136.823 308.193 132.328 308.193C127.834 308.193 121.071 306.711 120.064 312.871C119.057 319.031 124.824 324.952 137.575 325.682C150.327 326.413 153.835 326.184 156.581 323.469C159.326 320.754 158.838 317.309 156.082 312.871C153.326 308.434 148.578 305.239 145.832 305.489Z" fill="#D0CBFF" stroke="#263238" stroke-width="1.30949" stroke-linecap="round" stroke-linejoin="round"/>
<path d="M153.337 314.103C154.251 313.708 155.109 313.199 155.892 312.589C153.115 308.308 148.525 305.28 145.832 305.489C145.832 305.489 136.823 308.193 132.328 308.193H131.629C129.837 308.851 127.643 310.344 129.074 313.623C131.321 318.791 144.327 318.05 153.337 314.103Z" fill="white" stroke="#263238" stroke-width="1.30949" stroke-linecap="round" stroke-linejoin="round"/>
<path d="M341.663 343.673C341.663 343.673 302.645 280.107 300.144 279.616C297.642 279.125 287.138 278.634 287.138 278.634C287.138 278.634 258.624 263.359 253.621 263.359C248.618 263.359 224.61 277.642 222.108 278.634C219.607 279.626 206.102 281.099 206.102 283.061C206.102 285.024 196.563 300.812 196.563 300.812L177.049 307.713L175.554 315.106L169.544 348.11H347.62L341.663 343.673Z" fill="white"/>
<mask id="mask2_31_1027" style="mask-type:luminance" maskUnits="userSpaceOnUse" x="169" y="263" width="179" height="86">
<path d="M341.663 343.673C341.663 343.673 302.645 280.107 300.144 279.616C297.642 279.125 287.138 278.634 287.138 278.634C287.138 278.634 258.624 263.359 253.621 263.359C248.618 263.359 224.61 277.642 222.108 278.634C219.607 279.626 206.102 281.099 206.102 283.061C206.102 285.024 196.563 300.812 196.563 300.812L177.049 307.713L175.554 315.106L169.544 348.11H347.62L341.663 343.673Z" fill="white"/>
</mask>
<g mask="url(#mask2_31_1027)">
<path opacity="0.21" d="M352.029 349.217L342.352 341.208L302.073 277.883L283.873 275.21C283.873 275.21 255.254 260.717 252.074 261.093C248.894 261.469 216.83 279.793 215.674 279.793C214.519 279.793 206.76 279.407 204.831 282.08C202.902 284.753 194.761 298.483 194.761 298.483L174.621 304.967L172.682 318.697L188.581 319.459L220.73 350.783H355.517L352.029 349.217Z" fill="#141414"/>
<path d="M277.619 294.923C282.589 294.923 286.619 292.464 286.619 289.431C286.619 286.397 282.589 283.938 277.619 283.938C272.649 283.938 268.62 286.397 268.62 289.431C268.62 292.464 272.649 294.923 277.619 294.923Z" fill="white"/>
<path d="M304.638 283.218C304.638 286.256 300.61 288.721 295.649 288.721C290.689 288.721 286.65 286.256 286.65 283.218C286.65 280.18 290.678 277.726 295.649 277.726C300.621 277.726 304.638 280.19 304.638 283.218Z" fill="white"/>
<path d="M269.659 291.55C269.659 292.824 268.048 293.858 266.066 293.858C264.083 293.858 262.462 292.814 262.462 291.55C262.462 290.287 264.073 289.253 266.066 289.253C268.058 289.253 269.659 290.276 269.659 291.55Z" fill="white"/>
<path d="M289.491 293.858C292.869 293.858 295.607 292.035 295.607 289.786C295.607 287.537 292.869 285.713 289.491 285.713C286.113 285.713 283.375 287.537 283.375 289.786C283.375 292.035 286.113 293.858 289.491 293.858Z" fill="white"/>
<path d="M285.898 296.698C285.898 298.452 283.237 299.882 279.962 299.882C276.686 299.882 274.026 298.452 274.026 296.698C274.026 294.944 276.676 293.503 279.962 293.503C283.248 293.503 285.898 294.933 285.898 296.698Z" fill="white"/>
<path d="M261.423 291.55C261.423 292.594 259.971 293.503 258.19 293.503C256.409 293.503 254.947 292.626 254.947 291.55C254.947 290.475 256.399 289.608 258.19 289.608C259.981 289.608 261.423 290.475 261.423 291.55Z" fill="white"/>
<path d="M271.503 282.163C271.503 282.748 270.369 283.208 268.98 283.208C267.592 283.208 266.468 282.738 266.468 282.163C266.468 281.589 267.592 281.119 268.98 281.119C270.369 281.119 271.503 281.568 271.503 282.163Z" fill="white"/>
<path d="M289.491 282.863C289.491 284.429 287.721 285.703 285.537 285.703C283.354 285.703 281.583 284.429 281.583 282.863C281.583 281.297 283.354 280.033 285.537 280.033C287.721 280.033 289.491 281.297 289.491 282.863Z" fill="white"/>
<path d="M281.583 281.631C281.583 282.31 280.131 282.863 278.34 282.863C276.549 282.863 275.096 282.31 275.096 281.631C275.096 280.952 276.549 280.388 278.34 280.388C280.131 280.388 281.583 280.942 281.583 281.631Z" fill="white"/>
<path d="M293.095 301.125C293.095 302.983 290.434 304.487 287.159 304.487C283.884 304.487 281.223 302.983 281.223 301.125C281.223 299.266 283.873 297.752 287.159 297.752C290.445 297.752 293.095 299.266 293.095 301.125Z" fill="white"/>
<path d="M296.688 301.302C301.26 301.302 304.966 298.923 304.966 295.988C304.966 293.052 301.26 290.673 296.688 290.673C292.116 290.673 288.41 293.052 288.41 295.988C288.41 298.923 292.116 301.302 296.688 301.302Z" fill="white"/>
<path d="M309.652 290.308C309.652 293.252 305.942 295.633 301.373 295.633C296.805 295.633 293.095 293.252 293.095 290.308C293.095 287.363 296.805 284.993 301.373 284.993C305.942 284.993 309.652 287.374 309.652 290.308Z" fill="white"/>
<path d="M247.399 297.084C247.399 298.462 245.788 299.569 243.806 299.569C241.824 299.569 240.202 298.462 240.202 297.084C240.202 295.706 241.813 294.609 243.806 294.609C245.799 294.609 247.399 295.674 247.399 297.084Z" fill="white"/>
<path d="M251.713 306.262C251.713 309.008 247.198 311.232 241.633 311.232C236.068 311.232 231.553 309.008 231.553 306.262C231.553 303.516 236.068 301.302 241.633 301.302C247.198 301.302 251.713 303.526 251.713 306.262Z" fill="white"/>
<path d="M256.028 300.77C256.028 302.858 253.293 304.487 249.911 304.487C246.53 304.487 243.795 302.827 243.795 300.77C243.795 298.713 246.53 297.042 249.911 297.042C253.293 297.042 256.028 298.713 256.028 300.77Z" fill="white"/>
<path d="M229.581 291.728C229.581 293.492 226.921 294.923 223.635 294.923C220.349 294.923 217.699 293.492 217.699 291.728C217.699 289.963 220.359 288.543 223.635 288.543C226.91 288.543 229.581 289.963 229.581 291.728Z" fill="white"/>
<path d="M222.925 298.128C222.925 299.308 220.667 300.216 217.879 300.216C215.091 300.216 212.844 299.266 212.844 298.128C212.844 296.99 215.102 296.04 217.879 296.04C220.656 296.04 222.925 296.938 222.925 298.128Z" fill="white"/>
<path d="M225.256 301.302C227.147 301.302 228.68 300.428 228.68 299.35C228.68 298.271 227.147 297.397 225.256 297.397C223.365 297.397 221.833 298.271 221.833 299.35C221.833 300.428 223.365 301.302 225.256 301.302Z" fill="white"/>
<path d="M209.24 306.972C209.24 308.736 206.06 310.167 202.223 310.167C198.386 310.167 195.206 308.736 195.206 306.972C195.206 305.207 198.386 303.787 202.223 303.787C206.06 303.787 209.24 305.207 209.24 306.972Z" fill="white"/>
<path d="M210.321 322.926C214.495 322.926 217.879 320.626 217.879 317.789C217.879 314.952 214.495 312.652 210.321 312.652C206.147 312.652 202.764 314.952 202.764 317.789C202.764 320.626 206.147 322.926 210.321 322.926Z" fill="white"/>
<path d="M215.006 307.859C215.006 308.903 213.395 309.812 211.402 309.812C209.41 309.812 207.809 308.935 207.809 307.859C207.809 306.784 209.42 305.907 211.402 305.907C213.385 305.907 215.006 306.784 215.006 307.859Z" fill="white"/>
<path d="M199.35 314.771C201.634 314.771 203.484 313.818 203.484 312.641C203.484 311.465 201.634 310.511 199.35 310.511C197.067 310.511 195.217 311.465 195.217 312.641C195.217 313.818 197.067 314.771 199.35 314.771Z" fill="white"/>
<path d="M226.518 316.546C226.518 317.914 224.398 319.021 221.843 319.021C219.289 319.021 217.158 317.914 217.158 316.546C217.158 315.179 219.278 314.061 221.843 314.061C224.408 314.061 226.518 315.179 226.518 316.546Z" fill="white"/>
<path opacity="0.1" d="M300.144 279.616L301.628 310.094L254.48 297.93L255.603 333.315L230.344 315.628L228.108 327.792L207.332 332.219L187.097 312.14L178.151 332.772L135.487 338.849L99.5645 350.073H226.115L225.129 347.974L347.662 348.11L341.663 343.673L300.144 279.616Z" fill="#141414"/>
</g>
<path d="M341.663 343.673C341.663 343.673 302.645 280.107 300.144 279.616C297.642 279.125 287.138 278.634 287.138 278.634C287.138 278.634 258.624 263.359 253.621 263.359C248.618 263.359 224.61 277.642 222.108 278.634C219.607 279.626 206.102 281.099 206.102 283.061C206.102 285.024 196.563 300.812 196.563 300.812L177.049 307.713L175.554 315.106L169.544 348.11H347.62L341.663 343.673Z" stroke="#263238" stroke-width="1.30949" stroke-linecap="round" stroke-linejoin="round"/>
<path opacity="0.1" d="M206.06 283.061C206.06 284.586 200.432 294.275 197.835 298.65L218.123 289.253L259.059 287.468L273.475 281.516H286.968L289.268 278.739L287.148 278.634C287.148 278.634 258.635 263.359 253.632 263.359C248.629 263.359 224.621 277.642 222.119 278.634C219.617 279.626 206.06 281.099 206.06 283.061Z" fill="#141414"/>
<path d="M196.605 300.801H213.607L238.623 323.469L238.114 339.235L221.61 347.609" stroke="#263238" stroke-width="1.30949" stroke-linecap="round" stroke-linejoin="round"/>
<path d="M222.352 308.079L244.124 291.936L276.633 310.658L291.144 348.601" stroke="#263238" stroke-width="1.30949" stroke-linecap="round" stroke-linejoin="round"/>
<path d="M276.633 310.658L270.634 330.371L246.625 336.771L238.623 331.352" stroke="#263238" stroke-width="1.30949" stroke-linecap="round" stroke-linejoin="round"/>
<path d="M246.625 336.771L247.622 348.1" stroke="#263238" stroke-width="1.30949" stroke-linecap="round" stroke-linejoin="round"/>
<path d="M270.634 330.371L278.138 347.609" stroke="#263238" stroke-width="1.30949" stroke-linecap="round" stroke-linejoin="round"/>
<path d="M251.374 247.833C251.374 247.833 251.872 260.362 249.371 265.823C246.869 271.284 243.117 273.946 228.617 274.938C214.116 275.93 194.602 269.018 194.602 269.018C194.602 269.018 184.098 286.517 179.847 294.15C175.597 301.783 167.838 310.407 165.59 313.372C163.343 316.338 160.831 320.754 157.831 322.237C154.832 323.719 147.825 314.844 146.574 311.639C145.324 308.434 144.327 306.22 144.582 304.748C144.836 303.276 150.327 300.801 150.327 300.801C150.327 300.801 158.807 285.035 162.834 278.634C166.862 272.234 169.841 259.172 173.339 254.484C176.837 249.796 184.85 247.092 194.846 247.593C204.841 248.094 221.112 250.099 225.362 250.099C229.613 250.099 251.374 247.833 251.374 247.833Z" fill="#263238" stroke="#263238" stroke-width="1.30949" stroke-linecap="round" stroke-linejoin="round"/>
<path d="M154.121 294.307C158.213 287.134 165.113 274.792 167.095 269.718C169.968 262.357 173.137 256.144 173.137 256.144" stroke="white" stroke-width="0.982119" stroke-linecap="round" stroke-linejoin="round"/>
<path d="M150.995 299.715C150.995 299.715 151.482 298.89 152.267 297.523" stroke="white" stroke-width="0.982119" stroke-linecap="round" stroke-linejoin="round"/>
<path d="M212.42 188.297C212.42 188.297 207.587 194.374 206.251 199.302C204.916 204.23 200.082 221.636 199.086 222.951C198.089 224.267 194.909 228.705 191.91 230.835C188.91 232.965 178.978 236.87 175.31 239.991C171.643 243.113 173.402 244.627 171.908 247.091C170.413 249.556 177.208 251.038 178.734 251.038C180.261 251.038 191.242 250.38 197.411 248.25C203.58 246.12 213.258 234.124 213.586 233.466C213.915 232.808 215.706 221.98 216.257 209.451C216.808 196.922 218.78 188.297 212.42 188.297Z" fill="#D0CBFF"/>
<mask id="mask3_31_1027" style="mask-type:luminance" maskUnits="userSpaceOnUse" x="171" y="188" width="46" height="64">
<path d="M212.42 188.297C212.42 188.297 207.587 194.374 206.251 199.302C204.916 204.23 200.082 221.636 199.086 222.951C198.089 224.267 194.909 228.705 191.91 230.835C188.91 232.965 178.978 236.87 175.31 239.991C171.643 243.113 173.402 244.627 171.908 247.091C170.413 249.556 177.208 251.038 178.734 251.038C180.261 251.038 191.242 250.38 197.411 248.25C203.58 246.12 213.258 234.124 213.586 233.466C213.915 232.808 215.706 221.98 216.257 209.451C216.808 196.922 218.78 188.297 212.42 188.297Z" fill="white"/>
</mask>
<g mask="url(#mask3_31_1027)">
<path opacity="0.2" d="M216.946 197.548C216.84 196.681 216.777 196.18 216.777 196.18L210.576 200.941C208.687 204.092 207.811 207.732 208.064 211.383C208.382 217.846 209.94 222.168 209.007 222.168C208.074 222.168 204.937 218.462 204.937 222.168C204.937 225.875 207.131 228.631 207.756 230.793C208.382 232.954 199.934 223.703 200.877 226.783C201.82 229.864 205.88 233.57 205.562 235.418C205.244 237.266 200.262 228.945 198.365 231.106C196.467 233.267 198.057 236.953 196.181 237.569C194.613 238.091 181.479 247.634 180.112 250.944C183.578 250.756 192.228 250.005 197.432 248.209C203.601 246.068 213.279 234.082 213.607 233.424C213.936 232.766 215.727 221.939 216.278 209.409C216.459 204.92 216.84 200.858 216.946 197.548Z" fill="#141414"/>
</g>
<path d="M212.42 188.297C212.42 188.297 207.587 194.374 206.251 199.302C204.916 204.23 200.082 221.636 199.086 222.951C198.089 224.267 194.909 228.705 191.91 230.835C188.91 232.965 178.978 236.87 175.31 239.991C171.643 243.113 173.402 244.627 171.908 247.092C170.413 249.556 177.208 251.038 178.734 251.038C180.261 251.038 191.242 250.38 197.411 248.25C203.58 246.12 213.258 234.124 213.586 233.466C213.915 232.808 215.706 221.98 216.257 209.451C216.808 196.922 218.78 188.297 212.42 188.297Z" stroke="#263238" stroke-width="1.30949" stroke-linecap="round" stroke-linejoin="round"/>
<path d="M210.47 232.923C210.47 232.923 201.566 223.014 201.28 225.28C200.994 227.546 207.311 232.923 207.311 235.47C207.311 238.018 198.121 228.109 197.252 230.939C197.025 231.729 197.105 232.573 197.478 233.308C197.85 234.042 198.488 234.612 199.266 234.907" stroke="#263238" stroke-width="1.30949" stroke-linecap="round" stroke-linejoin="round"/>
<path d="M180.483 240.524C180.483 240.524 175.332 238.655 173.159 240.524C170.986 242.393 162.845 249.075 166.11 250.965C169.375 252.855 175.204 252.897 177.229 251.237C178.385 250.275 179.664 249.468 181.034 248.835C181.034 248.835 180.218 251.769 182.932 250.172C185.645 248.574 188.083 243.218 186.451 241.881C184.818 240.545 180.483 240.524 180.483 240.524Z" fill="#263238" stroke="#263238" stroke-width="1.30949" stroke-linecap="round" stroke-linejoin="round"/>
<path d="M210.449 187.451C209.732 193.89 209.403 200.364 209.463 206.841C209.749 215.194 211.297 231.649 209.611 236.911C207.926 242.174 208.064 246.883 211.297 248.971C214.53 251.059 229.316 253.398 238.58 252.156C247.845 250.913 253.356 249.378 253.918 245.891C254.48 242.403 254.904 212.354 253.208 201.411C251.512 190.469 248.152 180.216 244.728 176.885C241.305 173.554 237.838 174.797 229.253 178.138C220.667 181.479 212.844 184.121 210.449 187.451Z" fill="#D0CBFF" stroke="#263238" stroke-width="1.30949" stroke-linecap="round" stroke-linejoin="round"/>
<path d="M228.32 203.238C228.32 203.238 220.317 208.167 209.06 203.238C209.06 203.238 208.562 208.459 209.315 208.459C212.803 209.491 216.432 209.988 220.073 209.931C227.323 209.931 230.069 208.208 230.069 208.208L228.32 203.238Z" fill="#263238" stroke="#263238" stroke-width="1.30949" stroke-linecap="round" stroke-linejoin="round"/>
<path d="M227.609 185.259C227.609 185.259 224.366 193.142 225.108 200.284C225.85 207.425 228.362 213.346 235.612 213.346C242.862 213.346 248.873 197.82 249.127 189.195C249.381 180.571 246.371 176.885 239.365 176.885C232.358 176.885 227.609 185.259 227.609 185.259Z" fill="#263238" stroke="#263238" stroke-width="1.30949" stroke-linecap="round" stroke-linejoin="round"/>
<path d="M209.049 185.781C209.049 185.781 213.289 194.134 214.349 195.763C215.409 197.391 215.611 196.734 216.734 196.18C217.858 195.627 238.4 178.169 240.234 177.47C242.068 176.77 245.714 178.441 246 176.645C246.286 174.849 238.4 163.614 236.153 161.818C233.906 160.022 229.401 166.799 228.277 167.352C227.154 167.905 226.73 167.352 224.758 167.77C222.787 168.187 212.706 180.654 209.049 185.781Z" fill="#D0CBFF"/>
<mask id="mask4_31_1027" style="mask-type:luminance" maskUnits="userSpaceOnUse" x="209" y="161" width="38" height="36">
<path d="M209.049 185.781C209.049 185.781 213.289 194.134 214.349 195.763C215.409 197.391 215.611 196.734 216.734 196.18C217.858 195.627 238.4 178.169 240.234 177.47C242.068 176.77 245.714 178.441 246 176.645C246.286 174.849 238.4 163.614 236.153 161.818C233.906 160.022 229.401 166.799 228.277 167.352C227.154 167.905 226.73 167.352 224.758 167.77C222.787 168.187 212.706 180.654 209.049 185.781Z" fill="white"/>
</mask>
<g mask="url(#mask4_31_1027)">
<path opacity="0.2" d="M236.195 161.818C233.938 160.012 229.443 166.799 228.32 167.352C227.196 167.905 226.772 167.352 224.801 167.77C223.656 168.01 219.734 172.353 215.939 176.948L218.059 188.694C218.059 188.694 227.8 184.256 230.62 182.847C227.953 185.45 225.45 188.212 223.126 191.116C229.666 185.729 239.025 177.929 240.287 177.47C242.11 176.78 245.767 178.441 246.053 176.645C246.339 174.849 238.442 163.614 236.195 161.818Z" fill="#141414"/>
</g>
<path d="M209.049 185.781C209.049 185.781 213.289 194.134 214.349 195.763C215.409 197.391 215.611 196.734 216.734 196.18C217.858 195.627 238.4 178.169 240.234 177.47C242.068 176.77 245.714 178.441 246 176.645C246.286 174.849 238.4 163.614 236.153 161.818C233.906 160.022 229.401 166.799 228.277 167.352C227.154 167.905 226.73 167.352 224.758 167.77C222.787 168.187 212.706 180.654 209.049 185.781Z" stroke="#263238" stroke-width="1.30949" stroke-linecap="round" stroke-linejoin="round"/>
<path d="M224.514 178.054C224.514 178.054 238.05 168.709 233.461 168.709C228.871 168.709 228.288 174.369 228.288 174.369" stroke="#263238" stroke-width="1.30949" stroke-linecap="round" stroke-linejoin="round"/>
<path d="M213.406 184.956L218.048 188.694C220.397 185.254 222.555 181.692 224.514 178.023L222.129 170.265L213.406 184.956Z" fill="white"/>
<mask id="mask5_31_1027" style="mask-type:luminance" maskUnits="userSpaceOnUse" x="213" y="170" width="12" height="19">
<path d="M213.406 184.956L218.048 188.694C220.397 185.254 222.555 181.692 224.514 178.023L222.129 170.265L213.406 184.956Z" fill="white"/>
</mask>
<g mask="url(#mask5_31_1027)">
<path d="M213.406 184.956L218.048 188.694C220.397 185.254 222.555 181.692 224.514 178.023L222.129 170.265L213.406 184.956Z" fill="#D0CBFF"/>
<path opacity="0.5" d="M213.406 184.956L218.048 188.694C220.397 185.254 222.555 181.692 224.514 178.023L222.129 170.265L213.406 184.956Z" fill="white"/>
</g>
<path d="M213.406 184.956L218.048 188.694C220.397 185.254 222.555 181.692 224.514 178.023L222.129 170.265L213.406 184.956Z" stroke="#263238" stroke-width="1.30949" stroke-linecap="round" stroke-linejoin="round"/>
<path d="M198.64 146.522C196.265 149.502 194.964 153.175 194.941 156.963C194.941 163.896 198.036 174.285 200.145 178.576C202.255 182.868 207.565 188.83 210.13 189.018C212.696 189.205 218.992 179.62 220.253 177.24C220.967 175.982 221.489 174.628 221.801 173.22C221.801 173.22 225.458 171.56 225.034 164.867C224.61 158.174 221.938 148.234 222.649 146.574C223.359 144.914 226.581 141.729 225.882 140.612C225.182 139.495 223.762 140.341 222.225 141.165C220.688 141.99 214.805 140.758 210.406 141.165C207.482 141.454 204.644 142.305 202.053 143.671C200.741 144.397 199.582 145.365 198.64 146.522Z" fill="white"/>
<mask id="mask6_31_1027" style="mask-type:luminance" maskUnits="userSpaceOnUse" x="194" y="140" width="32" height="50">
<path d="M198.64 146.522C196.265 149.502 194.964 153.175 194.941 156.963C194.941 163.896 198.036 174.285 200.145 178.576C202.255 182.868 207.565 188.83 210.13 189.018C212.696 189.205 218.992 179.62 220.253 177.24C220.967 175.982 221.489 174.628 221.801 173.22C221.801 173.22 225.458 171.56 225.034 164.867C224.61 158.174 221.938 148.234 222.649 146.574C223.359 144.914 226.581 141.729 225.882 140.612C225.182 139.495 223.762 140.341 222.225 141.165C220.688 141.99 214.805 140.758 210.406 141.165C207.482 141.454 204.644 142.305 202.053 143.671C200.741 144.397 199.582 145.365 198.64 146.522Z" fill="white"/>
</mask>
<g mask="url(#mask6_31_1027)">
<path d="M210.48 188.924C213.183 188.381 219.077 179.464 220.296 177.198C221.01 175.941 221.531 174.586 221.843 173.178C221.843 173.178 225.5 171.518 225.076 164.825C224.652 158.133 221.981 148.193 222.691 146.532C223.401 144.872 226.624 141.688 225.924 140.57C225.789 140.352 225.581 140.185 225.337 140.097C225.092 140.01 224.824 140.008 224.578 140.09C220.717 142.894 217.212 146.143 214.137 149.769C209.812 155.272 213.883 163.029 213.883 163.029C213.883 163.029 216.67 170.036 216.162 175.037C215.748 179.099 212.992 185.186 210.48 188.924Z" fill="#D0CBFF"/>
<path opacity="0.5" d="M210.48 188.924C213.183 188.381 219.077 179.464 220.296 177.198C221.01 175.941 221.531 174.586 221.843 173.178C221.843 173.178 225.5 171.518 225.076 164.825C224.652 158.133 221.981 148.193 222.691 146.532C223.401 144.872 226.624 141.688 225.924 140.57C225.789 140.352 225.581 140.185 225.337 140.097C225.092 140.01 224.824 140.008 224.578 140.09C220.717 142.894 217.212 146.143 214.137 149.769C209.812 155.272 213.883 163.029 213.883 163.029C213.883 163.029 216.67 170.036 216.162 175.037C215.748 179.099 212.992 185.186 210.48 188.924Z" fill="white"/>
</g>
<path d="M198.64 146.522C196.265 149.502 194.964 153.175 194.941 156.963C194.941 163.896 198.036 174.285 200.145 178.576C202.255 182.868 207.565 188.83 210.13 189.018C212.696 189.205 218.992 179.62 220.253 177.24C220.967 175.982 221.489 174.628 221.801 173.22C221.801 173.22 225.458 171.56 225.034 164.867C224.61 158.174 221.938 148.234 222.649 146.574C223.359 144.914 226.581 141.729 225.882 140.612C225.182 139.495 223.762 140.341 222.225 141.165C220.688 141.99 214.805 140.758 210.406 141.165C207.482 141.454 204.644 142.305 202.053 143.671C200.741 144.397 199.582 145.365 198.64 146.522Z" stroke="#263238" stroke-width="1.30949" stroke-linecap="round" stroke-linejoin="round"/>
<path d="M202.711 168.469C202.616 169.758 202.181 171 201.449 172.071C200.326 173.45 200.888 174.421 202.573 174.285C203.562 174.214 204.5 173.825 205.244 173.178" stroke="#263238" stroke-width="1.30949" stroke-linecap="round" stroke-linejoin="round"/>
<path d="M202.435 162.643C202.435 162.643 191.316 164.355 190.33 166.026C189.344 167.697 196.234 173.93 198.354 172.813C200.474 171.696 202.011 167.498 203.654 167.592C205.297 167.686 208.859 171.059 211.954 170.505C215.049 169.952 218.706 162.883 218.43 161.495C218.155 160.106 205.954 161.818 202.435 162.643Z" fill="#263238" stroke="#263238" stroke-width="1.30949" stroke-linecap="round" stroke-linejoin="round"/>
<path d="M208.827 165.055C203.22 162.476 201.344 165.055 197.231 168.375C196.034 169.304 194.686 170.028 193.245 170.516C195.1 172.113 197.305 173.366 198.354 172.813C200.474 171.706 202.011 167.498 203.654 167.592C205.297 167.686 208.859 171.059 211.954 170.505C213.65 170.202 215.505 167.947 216.798 165.744C214.129 166.267 211.363 166.028 208.827 165.055Z" fill="#D0CBFF" stroke="#263238" stroke-width="1.30949" stroke-linecap="round" stroke-linejoin="round"/>
<path d="M203.94 177.198C205.341 177.566 206.824 177.496 208.183 176.999C209.543 176.501 210.712 175.6 211.53 174.421" stroke="#263238" stroke-width="1.30949" stroke-linecap="round" stroke-linejoin="round"/>
<path d="M218.472 159.876C218.472 159.876 219.872 166.527 219.458 168.052C219.045 169.576 220.582 168.469 221.144 165.838C221.437 164.652 221.625 163.443 221.705 162.225C220.857 161.175 219.742 160.364 218.472 159.876Z" fill="#D0CBFF" stroke="#263238" stroke-width="1.30949" stroke-linecap="round" stroke-linejoin="round"/>
<path d="M225.924 140.612C225.224 139.505 223.804 140.341 222.267 141.165C220.73 141.99 214.847 140.758 210.448 141.165C207.524 141.454 204.687 142.305 202.096 143.671C200.768 144.393 199.594 145.361 198.64 146.522C196.265 149.502 194.964 153.175 194.941 156.963C194.957 158.556 195.081 160.147 195.312 161.724C199.319 158.874 210.332 153.434 225.055 165.587C225.055 165.347 225.055 165.118 225.055 164.867C224.641 158.216 221.96 148.234 222.67 146.574C223.38 144.914 226.624 141.729 225.924 140.612Z" fill="#263238"/>
<mask id="mask7_31_1027" style="mask-type:luminance" maskUnits="userSpaceOnUse" x="194" y="140" width="33" height="26">
<path d="M225.924 140.612C225.224 139.505 223.804 140.341 222.267 141.165C220.73 141.99 214.847 140.758 210.448 141.165C207.524 141.454 204.687 142.305 202.096 143.671C200.768 144.393 199.594 145.361 198.64 146.522C196.265 149.502 194.964 153.175 194.941 156.963C194.957 158.556 195.081 160.147 195.312 161.724C199.319 158.874 210.332 153.434 225.055 165.587C225.055 165.347 225.055 165.118 225.055 164.867C224.641 158.216 221.96 148.234 222.67 146.574C223.38 144.914 226.624 141.729 225.924 140.612Z" fill="white"/>
</mask>
<g mask="url(#mask7_31_1027)">
<path d="M208.307 143.348C212.271 142.638 213.692 143.128 214.19 143.483C214.305 143.566 214.401 143.671 214.474 143.791C214.547 143.911 214.594 144.044 214.614 144.183C214.942 146.783 217.529 146.783 220.518 146.783C221.285 146.798 222.019 147.096 222.574 147.618C222.545 147.266 222.584 146.911 222.691 146.574C222.691 146.511 222.754 146.449 222.786 146.376C222.119 145.923 221.328 145.679 220.518 145.676C217.423 145.676 215.918 145.603 215.727 144.047C215.692 143.759 215.597 143.481 215.447 143.231C215.298 142.982 215.097 142.765 214.858 142.596C213.702 141.761 211.487 141.646 208.106 142.251C206.675 142.512 206.282 142.377 205.805 142.137C205.254 142.304 204.746 142.492 204.194 142.7C204.562 142.788 204.917 142.918 205.254 143.087C206.2 143.558 207.293 143.651 208.307 143.348Z" fill="#D0CBFF"/>
<path d="M223.709 160.503C221.981 156.692 220.931 156.556 218.96 157.161L218.494 157.297C216.755 157.788 214.921 158.07 213.194 155.668C211.466 153.267 208.54 153.068 205.201 155.261C203.505 156.378 202.986 156.19 201.449 155.658C201.046 155.512 200.591 155.355 200.05 155.188C198.206 154.645 196.255 156.128 194.973 157.422C194.973 157.924 194.973 158.467 195.047 158.989C196.17 157.663 198.227 155.794 199.721 156.253C200.251 156.41 200.686 156.556 201.078 156.692C201.829 157.084 202.682 157.245 203.527 157.154C204.372 157.062 205.169 156.723 205.816 156.18C207.798 154.885 210.533 153.841 212.282 156.305C214.307 159.156 216.702 158.947 218.78 158.394L219.267 158.247C220.645 157.83 221.154 157.673 222.67 160.993C223.175 162.21 223.976 163.285 225.002 164.126C225.002 163.562 224.896 162.988 224.822 162.382C224.376 161.802 224.002 161.171 223.709 160.503Z" fill="#D0CBFF"/>
<path d="M221.016 141.437C220.561 141.464 220.104 141.464 219.649 141.437C220.17 142.192 220.848 142.829 221.637 143.308C222.426 143.787 223.309 144.096 224.228 144.214C224.472 143.88 224.726 143.536 224.949 143.17C223.474 143.056 222.085 142.443 221.016 141.437Z" fill="#D0CBFF"/>
<path d="M199.372 149.947C199.888 149.902 200.403 150.051 200.813 150.364C201.502 150.834 202.106 151.095 204.099 150.448C204.926 150.176 205.7 149.842 206.442 149.529C208.795 148.485 210.183 148.004 211.264 149.226C213.215 151.419 214.444 152.056 216.776 152.056H217.995C220.041 151.972 221.408 151.993 221.885 153.1C222.316 153.993 222.947 154.778 223.73 155.397C223.613 154.729 223.497 154.081 223.38 153.444C223.194 153.202 223.038 152.939 222.914 152.661C222.097 150.803 219.893 150.897 217.953 150.98H216.776C214.911 150.98 213.967 150.625 212.112 148.537C210.427 146.647 208.275 147.566 205.996 148.537C205.276 148.84 204.523 149.163 203.749 149.414C202.138 149.947 201.852 149.748 201.449 149.477C200.84 149.028 200.088 148.81 199.329 148.861C198.275 148.96 197.279 149.379 196.478 150.061C196.154 150.773 195.881 151.505 195.662 152.254C196.828 151.106 198.269 149.947 199.372 149.947Z" fill="#D0CBFF"/>
</g>
<path d="M225.924 140.612C225.224 139.505 223.804 140.341 222.267 141.165C220.73 141.99 214.847 140.758 210.448 141.165C207.524 141.454 204.687 142.305 202.096 143.671C200.768 144.393 199.594 145.361 198.64 146.522C196.265 149.502 194.964 153.175 194.941 156.963C194.957 158.556 195.081 160.147 195.312 161.724C199.319 158.874 210.332 153.434 225.055 165.587C225.055 165.347 225.055 165.118 225.055 164.867C224.641 158.216 221.96 148.234 222.67 146.574C223.38 144.914 226.624 141.729 225.924 140.612Z" stroke="#263238" stroke-width="1.30949" stroke-linecap="round" stroke-linejoin="round"/>
<path d="M198.64 239.208C196.049 239.013 193.483 238.572 190.977 237.893C187.797 236.911 186.143 236.254 184.31 237.569C182.476 238.885 177.95 245.922 177.632 247.426C177.314 248.929 178.692 250.057 179.306 249.514C179.921 248.971 185.666 245.087 185.666 245.087C187.155 246.32 188.933 247.167 190.839 247.551C192.435 247.739 194.045 247.325 195.344 246.392L198.524 246.893L198.64 239.208Z" fill="#263238" stroke="#263238" stroke-width="1.30949" stroke-linecap="round" stroke-linejoin="round"/>
<path d="M246.117 182.387C246.117 182.387 241.951 178.274 234.457 184.35C226.963 190.427 229.157 202.424 229.295 207.321C229.433 212.218 231.287 224.726 231.287 227.358V231.628C231.287 231.628 221.451 235.899 217.624 237.047C213.798 238.196 206.283 238.363 204.619 238.686C202.954 239.01 198.778 237.214 197.782 239.02C196.785 240.827 194.782 247.718 197.442 248.867C200.103 250.015 213.448 250.182 222.786 250.182C232.125 250.182 246.466 247.885 249.805 245.912C253.144 243.938 252.466 232.61 252.466 224.893C252.466 217.177 252.296 200.096 250.971 193.027C249.646 185.958 247.452 183.703 246.117 182.387Z" fill="#D0CBFF"/>
<mask id="mask8_31_1027" style="mask-type:luminance" maskUnits="userSpaceOnUse" x="196" y="181" width="57" height="70">
<path d="M246.117 182.387C246.117 182.387 241.951 178.274 234.457 184.35C226.963 190.427 229.157 202.424 229.295 207.321C229.433 212.218 231.287 224.726 231.287 227.358V231.628C231.287 231.628 221.451 235.899 217.624 237.047C213.798 238.196 206.283 238.363 204.619 238.686C202.954 239.01 198.778 237.214 197.782 239.02C196.785 240.827 194.782 247.718 197.442 248.867C200.103 250.015 213.448 250.182 222.786 250.182C232.125 250.182 246.466 247.885 249.805 245.912C253.144 243.938 252.466 232.61 252.466 224.893C252.466 217.177 252.296 200.096 250.971 193.027C249.646 185.958 247.452 183.703 246.117 182.387Z" fill="white"/>
</mask>
<g mask="url(#mask8_31_1027)">
<path opacity="0.2" d="M250.961 193.058C249.625 186 247.452 183.661 246.116 182.387C246.116 182.387 243.838 180.153 239.629 181.437L239.354 181.834C239.354 181.834 245.926 182.763 244.654 185.53C243.382 188.297 232.453 196.932 232.453 196.932C232.453 196.932 238.707 193.236 244.336 192.933C249.964 192.63 246.53 196.316 243.403 196.932C240.276 197.548 252.158 198.477 247.463 199.709C242.767 200.941 238.082 199.093 240.265 202.173C242.449 205.254 251.226 206.183 248.745 209.263C246.265 212.343 238.145 215.423 239.99 220.049C241.834 224.674 250.314 223.745 250.314 226.522C250.314 229.3 248.12 230.532 244.06 231.148C240 231.764 251.332 232.307 248.629 236.504C245.926 240.701 242.809 234.531 237.796 237.611C232.782 240.691 230.291 246.246 223.094 246.862C215.897 247.478 210.268 246.862 204.64 248.71C203.58 249.044 202.604 249.357 201.64 249.629C207.014 250.13 215.96 250.213 222.839 250.213C232.178 250.213 246.519 247.916 249.858 245.943C253.197 243.97 252.519 232.641 252.519 224.925C252.519 217.209 252.285 200.127 250.961 193.058Z" fill="#141414"/>
</g>
<path d="M246.117 182.387C246.117 182.387 241.951 178.274 234.457 184.35C226.963 190.427 229.157 202.424 229.295 207.321C229.433 212.218 231.287 224.726 231.287 227.358V231.628C231.287 231.628 221.451 235.899 217.624 237.047C213.798 238.196 206.283 238.363 204.619 238.686C202.954 239.01 198.778 237.214 197.782 239.02C196.785 240.827 194.782 247.718 197.442 248.867C200.103 250.015 213.448 250.182 222.786 250.182C232.125 250.182 246.466 247.885 249.805 245.912C253.144 243.938 252.466 232.61 252.466 224.893C252.466 217.177 252.296 200.096 250.971 193.027C249.646 185.958 247.452 183.703 246.117 182.387Z" stroke="#263238" stroke-width="1.30949" stroke-linecap="round" stroke-linejoin="round"/>
<path d="M233.461 232.077C233.461 232.077 241.22 232.359 245.523 237.454" stroke="#263238" stroke-width="1.30949" stroke-linecap="round" stroke-linejoin="round"/>
<path d="M233.747 230.939C233.747 230.939 241.22 228.673 245.237 230.375C249.254 232.077 252.996 229.237 246.392 226.982C239.789 224.726 234.489 227.389 232.888 229.529" stroke="#263238" stroke-width="1.30949" stroke-linecap="round" stroke-linejoin="round"/>
<path d="M246.392 189.905C246.392 189.905 244.092 187.357 236.905 193.037C229.719 198.717 231.447 202.09 236.047 199.824C240.647 197.558 248.682 194.739 249.265 198.133C249.848 201.526 241.22 199.824 242.905 201.808C244.59 203.792 248.65 203.792 248.65 203.792" stroke="#263238" stroke-width="1.30949" stroke-linecap="round" stroke-linejoin="round"/>
<path d="M202.933 251.205H151.917V253.502H202.933V251.205Z" fill="white" stroke="#263238" stroke-width="1.30949" stroke-linecap="round" stroke-linejoin="round"/>
<path d="M179.762 251.205H151.917V253.502H179.762V251.205Z" fill="white" stroke="#263238" stroke-width="1.30949" stroke-linecap="round" stroke-linejoin="round"/>
<path d="M151.917 251.205L140.575 226.397H171.092L179.762 251.205H151.917Z" fill="white" stroke="#263238" stroke-width="1.30949" stroke-linecap="round" stroke-linejoin="round"/>
<path d="M221.61 347.609C221.61 347.609 190.097 312.109 187.097 312.109C184.097 312.109 113.567 325.411 111.065 328.815C108.564 332.219 99.5645 350 99.5645 350H226.115L221.61 347.609Z" fill="white"/>
<mask id="mask9_31_1027" style="mask-type:luminance" maskUnits="userSpaceOnUse" x="99" y="312" width="128" height="38">
<path d="M221.61 347.609C221.61 347.609 190.097 312.109 187.097 312.109C184.097 312.109 113.567 325.411 111.065 328.815C108.564 332.219 99.5645 350 99.5645 350H226.115L221.61 347.609Z" fill="white"/>
</mask>
<g mask="url(#mask9_31_1027)">
<path opacity="0.21" d="M189.376 309.927L224.228 346.158L230.821 351.879L95.2715 351.117L110.768 326.319L184.341 309.53C184.341 309.53 185.921 308.778 189.376 309.927Z" fill="#141414"/>
<path d="M186.981 318.478C186.981 319.762 184.861 320.796 182.2 320.796C179.54 320.796 177.43 319.752 177.43 318.478C177.43 317.204 179.55 316.16 182.2 316.16C184.85 316.16 186.981 317.194 186.981 318.478Z" fill="white"/>
<path d="M158.499 333.555C158.499 336.886 154.8 339.59 150.231 339.59C145.663 339.59 141.953 336.886 141.953 333.555C141.953 330.224 145.652 327.531 150.231 327.531C154.81 327.531 158.499 330.235 158.499 333.555Z" fill="white"/>
<path d="M184.776 324.701C184.776 328.021 181.066 330.726 176.498 330.726C171.929 330.726 168.219 328.021 168.219 324.701C168.219 321.381 171.929 318.666 176.498 318.666C181.066 318.666 184.776 321.37 184.776 324.701Z" fill="white"/>
<path d="M165.696 327.886C165.696 329.65 163.682 331.081 161.202 331.081C158.722 331.081 156.708 329.65 156.708 327.886C156.708 326.121 158.722 324.701 161.202 324.701C163.682 324.701 165.696 326.121 165.696 327.886Z" fill="white"/>
<path d="M166.417 324.701C168.899 324.701 170.911 323.271 170.911 321.506C170.911 319.741 168.899 318.311 166.417 318.311C163.935 318.311 161.923 319.741 161.923 321.506C161.923 323.271 163.935 324.701 166.417 324.701Z" fill="white"/>
<path d="M159.76 326.57C162.243 326.57 164.255 325.14 164.255 323.375C164.255 321.61 162.243 320.18 159.76 320.18C157.278 320.18 155.266 321.61 155.266 323.375C155.266 325.14 157.278 326.57 159.76 326.57Z" fill="white"/>
<path d="M123.774 334.975C123.774 336.74 121.76 338.17 119.28 338.17C116.8 338.17 114.775 336.74 114.775 334.975C114.775 333.211 116.789 331.791 119.28 331.791C121.771 331.791 123.774 333.211 123.774 334.975Z" fill="white"/>
<path d="M134.756 329.661C134.756 331.028 132.816 332.146 130.431 332.146C128.046 332.146 126.117 331.028 126.117 329.661C126.117 328.293 128.046 327.176 130.431 327.176C132.816 327.176 134.756 328.293 134.756 329.661Z" fill="white"/>
<path opacity="0.1" d="M207.597 332.156L207.332 332.219L187.097 312.14L178.151 332.772L135.487 338.849L99.5645 350.073H226.115L221.61 347.609C221.61 347.609 215.028 340.206 207.597 332.156Z" fill="#141414"/>
</g>
<path d="M221.61 347.609C221.61 347.609 190.097 312.109 187.097 312.109C184.097 312.109 113.567 325.411 111.065 328.815C108.564 332.219 99.5645 350 99.5645 350H226.115L221.61 347.609Z" stroke="#263238" stroke-width="1.30949" stroke-linecap="round" stroke-linejoin="round"/>
</svg>
